<?xml version="1.0" encoding="UTF-8" standalone="no"?>
<!DOCTYPE svg PUBLIC "-//W3C//DTD SVG 1.1//EN" "http://www.w3.org/Graphics/SVG/1.1/DTD/svg11.dtd">
<svg width="100%" height="100%" viewBox="0 0 1809 2200" version="1.1" xmlns="http://www.w3.org/2000/svg" xmlns:xlink="http://www.w3.org/1999/xlink" xml:space="preserve" xmlns:serif="http://www.serif.com/" style="fill-rule:evenodd;clip-rule:evenodd;stroke-linejoin:round;stroke-miterlimit:2;">
    <g transform="matrix(1,0,0,1,-19146.400696,-20272.894045)">
        <g transform="matrix(1,0,0,1.547577,-0.48908,0)">
            <g transform="matrix(1,0,0,1,1330.280766,361.932396)">
                <g transform="matrix(1,0,0,1,5098.49272,2255.733458)">
                    <path d="M12718.116,11395.132L12718.116,10947.684L12721.904,10947.684C12737.469,10828.527 12817.687,10716.196 12949.543,10630.994C13097.082,10535.658 13297.189,10482.099 13505.841,10482.099L13740.117,10482.099C14152.319,10482.099 14490.479,10686.942 14524.097,10947.684L14526.842,10947.684L14526.842,11377.478L14525.842,11377.478L14525.842,11395.132C14525.842,11529.957 14442.956,11659.26 14295.416,11754.596C14147.876,11849.932 13947.77,11903.491 13739.117,11903.491L13504.841,11903.491C13070.345,11903.491 12718.116,11675.891 12718.116,11395.132Z" style="fill:white;"/>
                </g>
                <g transform="matrix(1,0,0,1,5098.49272,2255.733458)">
                    <g transform="matrix(0.477067,0,0,0.308267,5006.64791,10195.652958)">
                        <path d="M19953.575,3300L19953.575,3891.037C19953.575,4328.402 19779.832,4747.854 19470.568,5057.117C19161.305,5366.381 18741.853,5540.124 18304.488,5540.124L17813.412,5540.124C16902.647,5540.124 16164.326,4801.802 16164.326,3891.037L16164.326,3300C16164.326,3300 16839.416,3770.394 18058.95,3770.394C19278.484,3770.394 19953.575,3300 19953.575,3300Z" style="fill:rgb(175,35,28);"/>
                    </g>
                    <g transform="matrix(-0.477067,0,0,-0.308267,22238.310795,12189.937455)">
                        <path d="M19953.575,3300L19953.575,3891.037C19953.575,4328.402 19779.832,4747.854 19470.568,5057.117C19161.305,5366.381 18741.853,5540.124 18304.488,5540.124L17813.412,5540.124C16902.647,5540.124 16164.326,4801.802 16164.326,3891.037L16164.326,3300C16164.326,3300 16839.416,3770.394 18058.95,3770.394C19278.484,3770.394 19953.575,3300 19953.575,3300Z" style="fill:rgb(175,35,28);"/>
                    </g>
                    <g transform="matrix(1,0,0,0.646171,-3962.47316,6937.365498)">
                        <path d="M17541.512,5600.391C17542.645,5599.348 17543.676,5598.181 17544.912,5597.262C17552.442,5591.667 17561.171,5592.604 17562.625,5592.76C17567.581,5593.292 17571.258,5595.106 17571.954,5595.45C17575.048,5596.976 17574.966,5597.117 17577.738,5599.175C17578.938,5600.066 17595.863,5612.571 17612.814,5630.282C17645.395,5664.323 17661.262,5695.419 17668.475,5711.59C17673.378,5722.581 17676.877,5733.887 17677.49,5735.866C17686.496,5764.964 17686.976,5787.018 17687.123,5793.4C17687.672,5817.22 17684.139,5836.996 17680.733,5850.839C17680.536,5851.636 17678.502,5859.659 17674.825,5869.974C17667.284,5891.132 17658.239,5907.083 17654.018,5914.342C17652.324,5917.254 17648.773,5922.633 17648.303,5923.345C17641.092,5934.266 17635.789,5940.882 17634.618,5942.344C17629.047,5949.295 17626.656,5951.782 17622.539,5956.833C17620.009,5959.937 17610.882,5969.739 17601.148,5985.465C17600.12,5987.126 17591.771,5998.856 17585.162,6015.497C17583.764,6019.015 17578.255,6031.062 17575.477,6048.884C17574.887,6052.671 17572.38,6065.405 17573.7,6084.256C17574.144,6090.592 17574.86,6116.379 17590.651,6152.706C17594.662,6161.932 17602.517,6180.625 17619.02,6203.697C17622.466,6208.515 17622.186,6208.708 17623.79,6214.407C17624.681,6217.573 17625.18,6220.878 17625.236,6224.167C17625.364,6231.613 17623.066,6235.716 17622.569,6236.603C17622.424,6236.863 17621.343,6238.792 17620.373,6239.598C17619.195,6240.576 17618.113,6241.682 17616.84,6242.531C17609.059,6247.719 17600.386,6246.355 17598.943,6246.129C17594.019,6245.354 17590.431,6243.37 17589.751,6242.994C17586.743,6241.33 17586.831,6241.192 17584.162,6239.02C17565.293,6223.661 17544.999,6201.883 17531.469,6182.868C17506.847,6148.266 17496.183,6118.195 17491.129,6100.613C17489.457,6094.799 17487.913,6087.218 17487.674,6086.045C17483.912,6067.572 17483.232,6052.838 17483.058,6044.681C17482.919,6038.17 17483.42,6030.197 17483.5,6028.94C17484.772,6008.719 17488.472,5993.24 17490.233,5986.22C17491.093,5982.79 17492.96,5976.949 17493.216,5976.149C17498.605,5959.293 17505.144,5945.111 17510.8,5934.308C17510.987,5933.951 17517.409,5921.882 17528.388,5906.434C17534.233,5898.209 17539.258,5891.991 17540.964,5889.878C17543.343,5886.93 17549.517,5880.437 17554.695,5874.243C17556.282,5872.346 17561.234,5866.855 17567.085,5858.785C17570.225,5854.455 17580.404,5841.71 17588.245,5822.606C17590.232,5817.765 17596.885,5803.432 17598.62,5781.538C17598.992,5776.844 17600.69,5760.905 17595.714,5737.914C17593.629,5728.277 17587.887,5700.314 17563.931,5662.929C17559.128,5655.434 17554.344,5647.977 17544.761,5636.243C17541.015,5631.657 17541.184,5631.498 17539.211,5625.914C17538.12,5622.828 17537.437,5619.566 17537.215,5616.3C17536.711,5608.867 17538.912,5604.517 17539.378,5603.597C17539.517,5603.322 17540.554,5601.272 17541.512,5600.391Z" style="fill:white;"/>
                    </g>
                    <g transform="matrix(1,0,0,0.646171,-4224.889108,6937.365498)">
                        <path d="M17634.99,5666.729C17636.524,5666.459 17638.041,5666.057 17639.592,5665.918C17647.014,5665.254 17652.804,5667.777 17653.864,5668.239C17658.146,5670.104 17667.651,5676.808 17668.804,5677.621C17676.02,5682.711 17683.455,5688.469 17692.561,5697.263C17709.81,5713.921 17719.28,5728.736 17724.106,5737.1C17727.511,5743.001 17730.443,5749.857 17730.93,5750.996C17739.828,5771.805 17740.958,5787.889 17741.26,5791.636C17742.689,5809.399 17740.218,5824.034 17737.878,5833.732C17737.855,5833.826 17736.342,5839.986 17733.302,5847.987C17728.68,5860.155 17723.02,5870.201 17718.271,5877.625C17717.342,5879.078 17713.755,5884.284 17708.869,5890.322C17707.741,5891.716 17707.73,5891.702 17706.652,5893.139C17706.019,5893.983 17703.81,5896.524 17700.477,5901.157C17699.865,5902.009 17694.984,5907.434 17689.677,5916.052C17689.454,5916.415 17684.716,5922.642 17680.683,5930.99C17679.884,5932.644 17676.409,5938.458 17673.631,5947.439C17672.942,5949.667 17670.568,5955.869 17669.379,5965.706C17668.881,5969.824 17666.271,5983.312 17670.802,6004.832C17671.737,6009.276 17673.138,6018.507 17679.519,6033.935C17679.769,6034.538 17680.25,6035.667 17680.226,6035.833C17679.505,6040.716 17682.894,6035.252 17687.801,6035.808C17694.16,6036.529 17695.798,6039.534 17696.159,6040.197C17696.519,6040.858 17698.103,6043.766 17695.482,6049.584C17694.944,6050.778 17692.789,6055.561 17685.854,6062.83C17678.254,6070.795 17675.105,6072.494 17674.001,6073.089C17665.931,6077.443 17657.358,6075.347 17655.948,6075.002C17651.087,6073.814 17647.634,6071.568 17646.979,6071.142C17643.95,6069.172 17644.082,6069 17641.39,6066.586C17636.605,6062.296 17624.256,6051.026 17611.727,6033.207C17611.433,6032.788 17606.561,6025.743 17601.406,6016.025C17592.295,5998.849 17587.913,5984.152 17585.662,5975.151C17585.653,5975.113 17584.371,5969.71 17583.306,5962.501C17581.102,5947.583 17581.455,5937.168 17581.53,5934.962C17582.034,5920.084 17584.34,5908.194 17585.926,5901.171C17585.945,5901.088 17587.562,5894.386 17590.61,5885.652C17594.211,5875.331 17598.149,5866.97 17599.054,5865.241C17605.752,5852.449 17612.636,5842.583 17616.216,5837.628C17617.24,5836.211 17625.694,5825.774 17630.654,5821.141C17633.592,5818.397 17633.812,5817.954 17636.023,5815.784C17642.688,5809.241 17644.971,5805.01 17646.613,5802.515C17650.536,5796.555 17651.961,5791.449 17652.919,5786.14C17654.161,5779.259 17653.819,5772.692 17652.287,5764.01C17649.014,5745.452 17639.469,5729.015 17635.573,5722.266C17630.722,5713.863 17626.796,5708.736 17626.768,5708.432C17623.817,5676.191 17621.621,5675.666 17623.636,5673.741C17624.714,5672.712 17625.688,5671.562 17626.87,5670.654C17628.587,5669.334 17630.378,5668.469 17630.701,5668.312C17633.395,5667.011 17634.629,5666.793 17634.99,5666.729Z" style="fill:white;"/>
                    </g>
                    <g transform="matrix(1,0,0,0.646171,-3860.223732,7033.877527)">
                        <path d="M17657.026,5995.15C17657.033,5995.152 17657.04,5995.154 17657.048,5995.156C17658.726,5995.668 17660.087,5996.961 17661.373,5998.156C17662.384,5999.096 17668.695,6004.962 17663.937,6015.231C17663.533,6016.104 17661.621,6020.23 17656.721,6024.845C17651.484,6029.779 17648.004,6031.223 17647.139,6031.583C17638.689,6035.092 17630.364,6032.149 17628.996,6031.665C17624.276,6029.996 17621.059,6027.42 17620.449,6026.931C17619.988,6026.562 17618.829,6025.633 17615.199,6021.737C17611.87,6018.163 17602.04,6007.931 17592.918,5991.24C17592.824,5991.069 17589.938,5985.653 17587.023,5978.245C17580.555,5961.812 17578.567,5947.703 17577.811,5939.084C17577.529,5935.872 17576.967,5919.683 17579.854,5905.347C17582.13,5894.039 17585.336,5884.763 17587.836,5878.382C17587.865,5878.306 17591.108,5870.357 17597.015,5860.103C17600.888,5853.381 17602.739,5850.85 17603.298,5850.087C17610.092,5840.797 17616.427,5833.853 17619.634,5830.412C17619.821,5830.212 17626.696,5823.607 17631.221,5820.077C17635.503,5816.735 17635.573,5816.833 17637.25,5815.697C17639.274,5814.326 17640.72,5813.719 17644.057,5811.168C17646.257,5809.486 17646.34,5809.229 17649.105,5806.809C17653.799,5802.701 17656.437,5798.524 17658.525,5795.173C17662.156,5789.348 17663.963,5783.913 17665.577,5778.786C17670.2,5764.093 17669.939,5749.762 17669.93,5744.151C17669.919,5737.288 17669.368,5732.208 17669.424,5731.737C17669.433,5731.658 17669.478,5731.587 17669.487,5731.508L17669.533,5731.607C17669.112,5728.384 17667.76,5725.329 17667.339,5722.106C17667.134,5720.533 17667.413,5718.924 17667.674,5717.359C17669.342,5707.382 17676.192,5702.387 17677.394,5701.51C17681.462,5698.544 17685.595,5697.585 17686.363,5697.407C17687.812,5697.071 17696.07,5695.155 17704.709,5700.417C17708.916,5702.979 17711.303,5706.242 17711.753,5706.859C17711.774,5706.886 17714.458,5711.46 17714.577,5711.647C17716.301,5714.357 17722.8,5723.817 17728.121,5735.468C17734.269,5748.93 17739.549,5763.99 17742.315,5782.259C17742.815,5785.556 17743.16,5790.65 17743.209,5791.382C17744.538,5810.996 17741.573,5824.465 17741.337,5825.684C17739.703,5834.111 17736.792,5844.969 17731.292,5856.993C17731.222,5857.146 17728.186,5863.645 17722.962,5871.707C17717.266,5880.498 17711.106,5887.812 17707.952,5891.075C17703.942,5895.223 17703.74,5895.023 17699.857,5899.288C17699.725,5899.434 17697.538,5901.503 17694.76,5904.521C17693.92,5905.434 17690.214,5908.4 17684.879,5914.473C17684.526,5914.875 17680.505,5918.39 17676.046,5923.979C17675.189,5925.054 17671.857,5928.3 17668.091,5934.237C17667.381,5935.356 17664.563,5938.886 17661.749,5945.529C17660.966,5947.378 17656.032,5956.228 17655.588,5971.795C17655.495,5975.042 17654.833,5980.835 17656.827,5992.697C17656.944,5993.39 17657.151,5994.567 17657.135,5994.753C17657.133,5994.774 17657.114,5994.793 17657.116,5994.814C17657.125,5994.887 17657.22,5994.979 17657.166,5995.028C17657.117,5995.071 17657.07,5995.112 17657.026,5995.15ZM17656.266,5995.697C17656.04,5995.837 17655.809,5995.984 17655.413,5996.338C17655.75,5996.441 17656.006,5996.057 17656.266,5995.697Z" style="fill:white;"/>
                    </g>
                    <g transform="matrix(1,0,0,1,1,0)">
                        <g transform="matrix(0.13887,0.018477,-0.022363,0.083776,13047.590493,10985.212852)">
                            <path d="M1700.128,1257.797C1751.096,1180.668 1837.373,1134.268 1929.82,1134.268C2022.268,1134.268 2108.545,1180.668 2159.513,1257.797L2366.347,1570.795L2727.941,1670.784C2817.045,1695.423 2887.834,1763.139 2916.402,1851.062C2944.97,1938.985 2927.502,2035.377 2869.898,2107.684L2636.135,2401.117L2652.778,2775.912C2656.879,2868.269 2614.353,2956.518 2539.561,3010.858C2464.769,3065.197 2367.698,3078.372 2281.128,3045.931L1929.82,2914.285L1578.512,3045.931C1491.943,3078.372 1394.871,3065.197 1320.08,3010.858C1245.288,2956.518 1202.762,2868.269 1206.863,2775.912L1223.506,2401.117L989.742,2107.684C932.139,2035.377 914.671,1938.985 943.239,1851.062C971.807,1763.139 1042.596,1695.423 1131.7,1670.784L1493.294,1570.795L1700.128,1257.797ZM1929.82,1887.524C1792.699,1887.524 1681.375,1998.849 1681.375,2135.97C1681.375,2273.091 1792.699,2384.416 1929.82,2384.416C2066.941,2384.416 2178.266,2273.091 2178.266,2135.97C2178.266,1998.849 2066.941,1887.524 1929.82,1887.524Z" style="fill:rgb(175,35,28);"/>
                        </g>
                        <g transform="matrix(0.141258,0.002836,-0.003432,0.085216,13358.333358,10966.019651)">
                            <path d="M1700.128,1257.797C1751.096,1180.668 1837.373,1134.268 1929.82,1134.268C2022.268,1134.268 2108.545,1180.668 2159.513,1257.797L2366.347,1570.795L2727.941,1670.784C2817.045,1695.423 2887.834,1763.139 2916.402,1851.062C2944.97,1938.985 2927.502,2035.377 2869.898,2107.684L2636.135,2401.117L2652.778,2775.912C2656.879,2868.269 2614.353,2956.518 2539.561,3010.858C2464.769,3065.197 2367.698,3078.372 2281.128,3045.931L1929.82,2914.285L1578.512,3045.931C1491.943,3078.372 1394.871,3065.197 1320.08,3010.858C1245.288,2956.518 1202.762,2868.269 1206.863,2775.912L1223.506,2401.117L989.742,2107.684C932.139,2035.377 914.671,1938.985 943.239,1851.062C971.807,1763.139 1042.596,1695.423 1131.7,1670.784L1493.294,1570.795L1700.128,1257.797ZM1929.82,1887.524C1792.699,1887.524 1681.375,1998.849 1681.375,2135.97C1681.375,2273.091 1792.699,2384.416 1929.82,2384.416C2066.941,2384.416 2178.266,2273.091 2178.266,2135.97C2178.266,1998.849 2066.941,1887.524 1929.82,1887.524Z" style="fill:rgb(175,35,28);"/>
                        </g>
                        <g transform="matrix(0.135973,-0.027172,0.032887,0.082028,13647.904747,11074.113616)">
                            <path d="M1700.128,1257.797C1751.096,1180.668 1837.373,1134.268 1929.82,1134.268C2022.268,1134.268 2108.545,1180.668 2159.513,1257.797L2366.347,1570.795L2727.941,1670.784C2817.045,1695.423 2887.834,1763.139 2916.402,1851.062C2944.97,1938.985 2927.502,2035.377 2869.898,2107.684L2636.135,2401.117L2652.778,2775.912C2656.879,2868.269 2614.353,2956.518 2539.561,3010.858C2464.769,3065.197 2367.698,3078.372 2281.128,3045.931L1929.82,2914.285L1578.512,3045.931C1491.943,3078.372 1394.871,3065.197 1320.08,3010.858C1245.288,2956.518 1202.762,2868.269 1206.863,2775.912L1223.506,2401.117L989.742,2107.684C932.139,2035.377 914.671,1938.985 943.239,1851.062C971.807,1763.139 1042.596,1695.423 1131.7,1670.784L1493.294,1570.795L1700.128,1257.797ZM1929.82,1887.524C1792.699,1887.524 1681.375,1998.849 1681.375,2135.97C1681.375,2273.091 1792.699,2384.416 1929.82,2384.416C2066.941,2384.416 2178.266,2273.091 2178.266,2135.97C2178.266,1998.849 2066.941,1887.524 1929.82,1887.524Z" style="fill:rgb(175,35,28);"/>
                        </g>
                    </g>
                </g>
            </g>
        </g>
    </g>
</svg>
