<?xml version="1.0" encoding="UTF-8" standalone="no"?>
<!DOCTYPE svg PUBLIC "-//W3C//DTD SVG 1.1//EN" "http://www.w3.org/Graphics/SVG/1.1/DTD/svg11.dtd">
<svg width="100%" height="100%" viewBox="0 0 559 465" version="1.1" xmlns="http://www.w3.org/2000/svg" xmlns:xlink="http://www.w3.org/1999/xlink" xml:space="preserve" xmlns:serif="http://www.serif.com/" style="fill-rule:evenodd;clip-rule:evenodd;stroke-linejoin:round;stroke-miterlimit:2;">
    <g transform="matrix(1,0,0,1,-2471.36792,-11822.707347)">
        <g transform="matrix(0.260891,0,0,0.222928,2245.380772,11582.004147)">
            <path d="M1700.128,1257.797C1751.096,1180.668 1837.373,1134.268 1929.82,1134.268C2022.268,1134.268 2108.545,1180.668 2159.513,1257.797L2366.347,1570.795L2727.941,1670.784C2817.045,1695.423 2887.834,1763.139 2916.402,1851.062C2944.97,1938.985 2927.502,2035.377 2869.898,2107.684L2636.135,2401.117L2652.778,2775.912C2656.879,2868.269 2614.353,2956.518 2539.561,3010.858C2464.769,3065.197 2367.698,3078.372 2281.128,3045.931L1929.82,2914.285L1578.512,3045.931C1491.943,3078.372 1394.871,3065.197 1320.08,3010.858C1245.288,2956.518 1202.762,2868.269 1206.863,2775.912L1223.506,2401.117L989.742,2107.684C932.139,2035.377 914.671,1938.985 943.239,1851.062C971.807,1763.139 1042.596,1695.423 1131.7,1670.784L1493.294,1570.795L1700.128,1257.797Z" style="fill:white;"/>
        </g>
        <g transform="matrix(0.720703,0,0,0.615831,2121.951517,11034.450976)">
            <circle cx="869.849" cy="1662.341" r="89.936" style="fill:white;"/>
        </g>
        <g transform="matrix(0.720703,0,0,0.615831,2121.951517,11034.450976)">
            <path d="M869.849,1555.524C873.473,1555.157 919.74,1548.492 956.615,1588.578C984.519,1618.912 986.307,1654.345 986.65,1659.086C988.995,1691.562 978.412,1714.845 974.743,1722.532C963.675,1745.722 949.209,1758.409 945.234,1761.913C925.566,1779.247 906.899,1784.821 902.219,1786.255C881.618,1792.571 864.734,1791.217 856.312,1790.161C834.147,1787.382 818.399,1778.123 814.189,1775.636C785.646,1758.775 772.762,1735.608 770.081,1730.902C755.599,1705.486 749.523,1674.68 755.925,1643.409C764.871,1599.712 795.634,1569.704 830.588,1559.122C849.034,1553.537 864.623,1555.008 869.849,1555.524ZM869.849,1589.26C869.479,1589.33 869.093,1589.397 868.689,1589.46C868.609,1589.473 837.093,1592.797 817.694,1620.449C816.878,1621.614 800.961,1642.835 807.495,1669.107C809.484,1677.104 813.225,1687.087 825.135,1697.77C833.783,1705.528 843.235,1709.07 850.421,1711.064C855.419,1712.451 864.974,1714.217 876.56,1713.172C884.894,1712.421 896.584,1709.496 906.259,1703.296C907.249,1702.662 912.336,1699.402 917.804,1693.805C918.241,1693.358 933.542,1678.851 933.044,1655.428C932.939,1650.489 932.732,1633.258 917.362,1615.284C908.368,1604.768 897.758,1598.932 895.866,1597.891C882.489,1590.535 869.849,1589.358 869.849,1589.285C869.849,1589.276 869.849,1589.268 869.849,1589.26Z"/>
        </g>
        <path d="M2631.643,11916.223C2633.118,11914.878 2634.771,11912.72 2638.232,11908.141C2652.39,11890.775 2666.549,11873.409 2680.706,11856.043C2682.109,11854.19 2697.332,11831.958 2731.156,11824.78C2737.552,11823.423 2744.031,11822.742 2750.466,11822.707C2756.902,11822.742 2763.381,11823.423 2769.777,11824.78C2803.601,11831.958 2818.824,11854.19 2820.227,11856.043C2834.384,11873.409 2848.543,11890.775 2862.701,11908.141C2866.162,11912.72 2867.815,11914.878 2869.29,11916.223C2870.113,11916.974 2870.881,11917.472 2871.876,11917.995C2878.487,11921.474 2879.585,11917.376 2963.228,11937.336C3003.745,11947.005 3029.629,11979.528 3029.565,12014.739C3029.557,12019.354 3029.102,12024.015 3028.177,12028.678C3025.738,12040.71 3020.063,12052.437 3010.989,12062.801C2960.91,12120.007 2959.572,12118.888 2955.954,12124.419C2955.489,12125.131 2955.159,12125.877 2954.937,12126.651C2951.489,12134.759 2956.89,12144.826 2957.48,12153.841C2957.735,12157.725 2960.421,12198.722 2960.503,12202.409C2961.088,12228.532 2948.176,12252.834 2926.562,12268.972C2902.212,12286.284 2868.981,12292.011 2838.208,12282.947C2758.635,12259.508 2759.27,12256.966 2752.079,12256.457C2751.537,12256.418 2751,12256.414 2750.466,12256.441C2749.933,12256.414 2749.395,12256.418 2748.854,12256.457C2741.663,12256.966 2742.298,12259.508 2662.725,12282.947C2631.952,12292.011 2598.721,12286.284 2574.371,12268.972C2552.757,12252.834 2539.845,12228.532 2540.429,12202.409C2540.512,12198.722 2543.198,12157.725 2543.452,12153.841C2544.043,12144.826 2549.444,12134.759 2545.996,12126.651C2545.774,12125.877 2545.444,12125.131 2544.978,12124.419C2541.361,12118.888 2540.023,12120.007 2489.943,12062.801C2480.87,12052.437 2475.195,12040.71 2472.756,12028.678C2471.831,12024.015 2471.376,12019.354 2471.368,12014.739C2471.304,11979.528 2497.188,11947.005 2537.705,11937.336C2621.347,11917.376 2622.446,11921.474 2629.057,11917.995C2630.052,11917.472 2630.82,11916.974 2631.643,11916.223ZM2750.466,11847.081C2736.377,11846.333 2721.838,11849.688 2709.673,11857.639C2701.333,11863.091 2697.214,11868.809 2697.152,11868.762C2679.649,11892.396 2662.249,11916.106 2644.746,11939.74C2643.768,11941.06 2643.752,11941.053 2642.496,11942.11C2641.308,11943.11 2641.317,11943.137 2639.912,11943.802C2637.498,11944.943 2637.395,11944.679 2544.034,11968.76C2522.994,11974.186 2504.402,11991.003 2504.512,12012.801C2504.593,12028.805 2515.795,12039.35 2516.4,12039.976C2537.101,12061.419 2557.854,12082.81 2578.502,12104.303C2581.804,12107.74 2582.923,12111.467 2583.132,12112.167C2583.274,12112.64 2584.002,12115.064 2583.939,12118.286C2583.857,12122.484 2583.815,12122.481 2580.868,12201.857C2580.31,12216.906 2591.517,12232.896 2612.076,12239.675C2632.049,12246.261 2648.933,12239.98 2650.351,12239.508C2659.543,12236.449 2668.734,12233.384 2677.925,12230.321C2687.614,12227.232 2737.473,12211.347 2744.867,12209.156C2746.036,12208.81 2747.227,12208.519 2748.434,12208.339C2749.107,12208.239 2749.786,12208.168 2750.466,12208.127C2751.147,12208.168 2751.826,12208.239 2752.499,12208.339C2753.706,12208.519 2754.897,12208.81 2756.066,12209.156C2763.46,12211.347 2813.319,12227.232 2823.008,12230.321C2832.199,12233.384 2841.39,12236.449 2850.582,12239.508C2852,12239.98 2868.884,12246.261 2888.857,12239.675C2909.416,12232.896 2920.623,12216.906 2920.064,12201.857C2917.118,12122.481 2917.076,12122.484 2916.994,12118.286C2916.931,12115.064 2917.658,12112.64 2917.8,12112.167C2918.01,12111.467 2919.129,12107.74 2922.431,12104.303C2943.079,12082.81 2963.832,12061.419 2984.533,12039.976C2985.138,12039.35 2996.34,12028.805 2996.421,12012.801C2996.531,11991.003 2977.939,11974.186 2956.899,11968.76C2863.538,11944.679 2863.435,11944.943 2861.021,11943.802C2859.615,11943.137 2859.625,11943.11 2858.437,11942.11C2857.181,11941.053 2857.165,11941.06 2856.187,11939.74C2838.684,11916.106 2821.284,11892.396 2803.78,11868.762C2803.719,11868.809 2799.6,11863.091 2791.26,11857.639C2779.095,11849.688 2764.556,11846.333 2750.466,11847.081Z"/>
    </g>
</svg>
