<?xml version="1.0" encoding="UTF-8" standalone="no"?>
<!DOCTYPE svg PUBLIC "-//W3C//DTD SVG 1.1//EN" "http://www.w3.org/Graphics/SVG/1.1/DTD/svg11.dtd">
<svg width="100%" height="100%" viewBox="0 0 1809 2200" version="1.1" xmlns="http://www.w3.org/2000/svg" xmlns:xlink="http://www.w3.org/1999/xlink" xml:space="preserve" xmlns:serif="http://www.serif.com/" style="fill-rule:evenodd;clip-rule:evenodd;stroke-linejoin:round;stroke-miterlimit:2;">
    <g transform="matrix(1,0,0,1,-19146.400696,-20272.894045)">
        <g transform="matrix(1,0,0,1.547577,-0.48908,0)">
            <g transform="matrix(1,0,0,1,1330.280766,361.932396)">
                <g transform="matrix(1,0,0,1,5098.49272,2255.733458)">
                    <path d="M12718.116,11395.132L12718.116,10947.684L12721.904,10947.684C12737.469,10828.527 12817.687,10716.196 12949.543,10630.994C13097.082,10535.658 13297.189,10482.099 13505.841,10482.099L13740.117,10482.099C14152.319,10482.099 14490.479,10686.942 14524.097,10947.684L14526.842,10947.684L14526.842,11377.478L14525.842,11377.478L14525.842,11395.132C14525.842,11529.957 14442.956,11659.26 14295.416,11754.596C14147.876,11849.932 13947.77,11903.491 13739.117,11903.491L13504.841,11903.491C13070.345,11903.491 12718.116,11675.891 12718.116,11395.132Z" style="fill:white;"/>
                </g>
                <g transform="matrix(1,0,0,1,5098.49272,2255.733458)">
                    <g transform="matrix(0.477067,0,0,0.308267,5006.64791,10195.652958)">
                        <path d="M19953.575,3300L19953.575,3891.037C19953.575,4328.402 19779.832,4747.854 19470.568,5057.117C19161.305,5366.381 18741.853,5540.124 18304.488,5540.124C18141.617,5540.124 17976.283,5540.124 17813.412,5540.124C16902.647,5540.124 16164.326,4801.802 16164.326,3891.037C16164.326,3554.048 16164.326,3300 16164.326,3300C16164.326,3300 16839.416,3770.394 18058.95,3770.394C19278.484,3770.394 19953.575,3300 19953.575,3300Z" style="fill:rgb(175,35,28);"/>
                    </g>
                    <g transform="matrix(-0.477067,0,-0,-0.308267,22238.310795,12189.937455)">
                        <path d="M19953.575,3300L19953.575,3891.037C19953.575,4328.402 19779.832,4747.854 19470.568,5057.117C19161.305,5366.381 18741.853,5540.124 18304.488,5540.124C18141.617,5540.124 17976.283,5540.124 17813.412,5540.124C16902.647,5540.124 16164.326,4801.802 16164.326,3891.037C16164.326,3554.048 16164.326,3300 16164.326,3300C16164.326,3300 16839.416,3770.394 18058.95,3770.394C19278.484,3770.394 19953.575,3300 19953.575,3300Z" style="fill:rgb(175,35,28);"/>
                    </g>
                    <g transform="matrix(1,0,0,0.646171,-3962.47316,6937.365498)">
                        <path d="M17541.512,5600.391C17542.645,5599.348 17543.676,5598.181 17544.912,5597.262C17552.442,5591.667 17561.171,5592.604 17562.625,5592.76C17567.581,5593.292 17571.258,5595.106 17571.954,5595.45C17575.048,5596.976 17574.966,5597.117 17577.738,5599.175C17578.938,5600.066 17595.863,5612.571 17612.814,5630.282C17645.395,5664.323 17661.262,5695.419 17668.475,5711.59C17673.378,5722.581 17676.877,5733.887 17677.49,5735.866C17686.496,5764.964 17686.976,5787.018 17687.123,5793.4C17687.672,5817.22 17684.139,5836.996 17680.733,5850.839C17680.536,5851.636 17678.502,5859.659 17674.825,5869.974C17667.284,5891.132 17658.239,5907.083 17654.018,5914.342C17652.324,5917.254 17648.773,5922.633 17648.303,5923.345C17641.092,5934.266 17635.789,5940.882 17634.618,5942.344C17629.047,5949.295 17626.656,5951.782 17622.539,5956.833C17620.009,5959.937 17610.882,5969.739 17601.148,5985.465C17600.12,5987.126 17591.771,5998.856 17585.162,6015.497C17583.764,6019.015 17578.255,6031.062 17575.477,6048.884C17574.887,6052.671 17572.38,6065.405 17573.7,6084.256C17574.144,6090.592 17574.86,6116.379 17590.651,6152.706C17594.662,6161.932 17602.517,6180.625 17619.02,6203.697C17622.466,6208.515 17622.186,6208.708 17623.79,6214.407C17624.681,6217.573 17625.18,6220.878 17625.236,6224.167C17625.364,6231.613 17623.066,6235.716 17622.569,6236.603C17622.424,6236.863 17621.343,6238.792 17620.373,6239.598C17619.195,6240.576 17618.113,6241.682 17616.84,6242.531C17609.059,6247.719 17600.386,6246.355 17598.943,6246.129C17594.019,6245.354 17590.431,6243.37 17589.751,6242.994C17586.743,6241.33 17586.831,6241.192 17584.162,6239.02C17565.293,6223.661 17544.999,6201.883 17531.469,6182.868C17506.847,6148.266 17496.183,6118.195 17491.129,6100.613C17489.457,6094.799 17487.913,6087.218 17487.674,6086.045C17483.912,6067.572 17483.232,6052.838 17483.058,6044.681C17482.919,6038.17 17483.42,6030.197 17483.5,6028.94C17484.772,6008.719 17488.472,5993.24 17490.233,5986.22C17491.093,5982.79 17492.96,5976.949 17493.216,5976.149C17498.605,5959.293 17505.144,5945.111 17510.8,5934.308C17510.987,5933.951 17517.409,5921.882 17528.388,5906.434C17534.233,5898.209 17539.258,5891.991 17540.964,5889.878C17543.343,5886.93 17549.517,5880.437 17554.695,5874.243C17556.282,5872.346 17561.234,5866.855 17567.085,5858.785C17570.225,5854.455 17580.404,5841.71 17588.245,5822.606C17590.232,5817.765 17596.885,5803.432 17598.62,5781.538C17598.992,5776.844 17600.69,5760.905 17595.714,5737.914C17593.629,5728.277 17587.887,5700.314 17563.931,5662.929C17559.128,5655.434 17554.344,5647.977 17544.761,5636.243C17541.015,5631.657 17541.184,5631.498 17539.211,5625.914C17538.12,5622.828 17537.437,5619.566 17537.215,5616.3C17536.711,5608.867 17538.912,5604.517 17539.378,5603.597C17539.517,5603.322 17540.554,5601.272 17541.512,5600.391Z" style="fill:white;"/>
                    </g>
                    <g transform="matrix(1,0,0,0.646171,-4224.889108,6937.365498)">
                        <path d="M17634.99,5666.729C17636.524,5666.459 17638.041,5666.057 17639.592,5665.918C17647.014,5665.254 17652.804,5667.777 17653.864,5668.239C17658.146,5670.104 17667.651,5676.808 17668.804,5677.621C17676.02,5682.711 17683.455,5688.469 17692.561,5697.263C17709.81,5713.921 17719.28,5728.736 17724.106,5737.1C17727.511,5743.001 17730.443,5749.857 17730.93,5750.996C17739.828,5771.805 17740.958,5787.889 17741.26,5791.636C17742.689,5809.399 17740.218,5824.034 17737.878,5833.732C17737.855,5833.826 17736.342,5839.986 17733.302,5847.987C17728.68,5860.155 17723.02,5870.201 17718.271,5877.625C17717.342,5879.078 17713.755,5884.284 17708.869,5890.322C17707.741,5891.716 17707.73,5891.702 17706.652,5893.139C17706.019,5893.983 17703.81,5896.524 17700.477,5901.157C17699.865,5902.009 17694.984,5907.434 17689.677,5916.052C17689.454,5916.415 17684.716,5922.642 17680.683,5930.99C17679.884,5932.644 17676.409,5938.458 17673.631,5947.439C17672.942,5949.667 17670.568,5955.869 17669.379,5965.706C17668.881,5969.824 17666.271,5983.312 17670.802,6004.832C17671.737,6009.276 17673.138,6018.507 17679.519,6033.935C17679.769,6034.538 17680.25,6035.667 17680.226,6035.833C17679.505,6040.716 17682.894,6035.252 17687.801,6035.808C17694.16,6036.529 17695.798,6039.534 17696.159,6040.197C17696.519,6040.858 17698.103,6043.766 17695.482,6049.584C17694.944,6050.778 17692.789,6055.561 17685.854,6062.83C17678.254,6070.795 17675.105,6072.494 17674.001,6073.089C17665.931,6077.443 17657.358,6075.347 17655.948,6075.002C17651.087,6073.814 17647.634,6071.568 17646.979,6071.142C17643.95,6069.172 17644.082,6069 17641.39,6066.586C17636.605,6062.296 17624.256,6051.026 17611.727,6033.207C17611.433,6032.788 17606.561,6025.743 17601.406,6016.025C17592.295,5998.849 17587.913,5984.152 17585.662,5975.151C17585.653,5975.113 17584.371,5969.71 17583.306,5962.501C17581.102,5947.583 17581.455,5937.168 17581.53,5934.962C17582.034,5920.084 17584.34,5908.194 17585.926,5901.171C17585.945,5901.088 17587.562,5894.386 17590.61,5885.652C17594.211,5875.331 17598.149,5866.97 17599.054,5865.241C17605.752,5852.449 17612.636,5842.583 17616.216,5837.628C17617.24,5836.211 17625.694,5825.774 17630.654,5821.141C17633.592,5818.397 17633.812,5817.954 17636.023,5815.784C17642.688,5809.241 17644.971,5805.01 17646.613,5802.515C17650.536,5796.555 17651.961,5791.449 17652.919,5786.14C17654.161,5779.259 17653.819,5772.692 17652.287,5764.01C17649.014,5745.452 17639.469,5729.015 17635.573,5722.266C17630.722,5713.863 17626.796,5708.736 17626.768,5708.432C17623.817,5676.191 17621.621,5675.666 17623.636,5673.741C17624.714,5672.712 17625.688,5671.562 17626.87,5670.654C17628.587,5669.334 17630.378,5668.469 17630.701,5668.312C17633.395,5667.011 17634.629,5666.793 17634.99,5666.729Z" style="fill:white;"/>
                    </g>
                    <g transform="matrix(1,0,0,0.646171,-3860.223732,7033.877527)">
                        <path d="M17657.026,5995.15C17657.033,5995.152 17657.04,5995.154 17657.048,5995.156C17658.726,5995.668 17660.087,5996.961 17661.373,5998.156C17662.384,5999.096 17668.695,6004.962 17663.937,6015.231C17663.533,6016.104 17661.621,6020.23 17656.721,6024.845C17651.484,6029.779 17648.004,6031.223 17647.139,6031.583C17638.689,6035.092 17630.364,6032.149 17628.996,6031.665C17624.276,6029.996 17621.059,6027.42 17620.449,6026.931C17619.988,6026.562 17618.829,6025.633 17615.199,6021.737C17611.87,6018.163 17602.04,6007.931 17592.918,5991.24C17592.824,5991.069 17589.938,5985.653 17587.023,5978.245C17580.555,5961.812 17578.567,5947.703 17577.811,5939.084C17577.529,5935.872 17576.967,5919.683 17579.854,5905.347C17582.13,5894.039 17585.336,5884.763 17587.836,5878.382C17587.865,5878.306 17591.108,5870.357 17597.015,5860.103C17600.888,5853.381 17602.739,5850.85 17603.298,5850.087C17610.092,5840.797 17616.427,5833.853 17619.634,5830.412C17619.821,5830.212 17626.696,5823.607 17631.221,5820.077C17635.503,5816.735 17635.573,5816.833 17637.25,5815.697C17639.274,5814.326 17640.72,5813.719 17644.057,5811.168C17646.257,5809.486 17646.34,5809.229 17649.105,5806.809C17653.799,5802.701 17656.437,5798.524 17658.525,5795.173C17662.156,5789.348 17663.963,5783.913 17665.577,5778.786C17670.2,5764.093 17669.939,5749.762 17669.93,5744.151C17669.919,5737.288 17669.368,5732.208 17669.424,5731.737C17669.433,5731.658 17669.478,5731.587 17669.487,5731.508L17669.533,5731.607C17669.112,5728.384 17667.76,5725.329 17667.339,5722.106C17667.134,5720.533 17667.413,5718.924 17667.674,5717.359C17669.342,5707.382 17676.192,5702.387 17677.394,5701.51C17681.462,5698.544 17685.595,5697.585 17686.363,5697.407C17687.812,5697.071 17696.07,5695.155 17704.709,5700.417C17708.916,5702.979 17711.303,5706.242 17711.753,5706.859C17711.774,5706.886 17714.458,5711.46 17714.577,5711.647C17716.301,5714.357 17722.8,5723.817 17728.121,5735.468C17734.269,5748.93 17739.549,5763.99 17742.315,5782.259C17742.815,5785.556 17743.16,5790.65 17743.209,5791.382C17744.538,5810.996 17741.573,5824.465 17741.337,5825.684C17739.703,5834.111 17736.792,5844.969 17731.292,5856.993C17731.222,5857.146 17728.186,5863.645 17722.962,5871.707C17717.266,5880.498 17711.106,5887.812 17707.952,5891.075C17703.942,5895.223 17703.74,5895.023 17699.857,5899.288C17699.725,5899.434 17697.538,5901.503 17694.76,5904.521C17693.92,5905.434 17690.214,5908.4 17684.879,5914.473C17684.526,5914.875 17680.505,5918.39 17676.046,5923.979C17675.189,5925.054 17671.857,5928.3 17668.091,5934.237C17667.381,5935.356 17664.563,5938.886 17661.749,5945.529C17660.966,5947.378 17656.032,5956.228 17655.588,5971.795C17655.495,5975.042 17654.833,5980.835 17656.827,5992.697C17656.944,5993.39 17657.151,5994.567 17657.135,5994.753C17657.133,5994.774 17657.114,5994.793 17657.116,5994.814C17657.125,5994.887 17657.22,5994.979 17657.166,5995.028C17657.117,5995.071 17657.07,5995.112 17657.026,5995.15ZM17656.266,5995.697C17656.04,5995.837 17655.809,5995.984 17655.413,5996.338C17655.75,5996.441 17656.006,5996.057 17656.266,5995.697Z" style="fill:white;"/>
                    </g>
                    <g transform="matrix(1,0,0,1,1,0)">
                        <g transform="matrix(0.13887,0.018477,-0.022363,0.083776,13047.590493,10985.212852)">
                            <path d="M1700.128,1257.797C1751.096,1180.668 1837.373,1134.268 1929.82,1134.268C2022.268,1134.268 2108.545,1180.668 2159.513,1257.797L2366.347,1570.795L2727.941,1670.784C2817.045,1695.423 2887.834,1763.139 2916.402,1851.062C2944.97,1938.985 2927.502,2035.377 2869.898,2107.684L2636.135,2401.117L2652.778,2775.912C2656.879,2868.269 2614.353,2956.518 2539.561,3010.858C2464.769,3065.197 2367.698,3078.372 2281.128,3045.931L1929.82,2914.285L1578.512,3045.931C1491.943,3078.372 1394.871,3065.197 1320.08,3010.858C1245.288,2956.518 1202.762,2868.269 1206.863,2775.912L1223.506,2401.117L989.742,2107.684C932.139,2035.377 914.671,1938.985 943.239,1851.062C971.807,1763.139 1042.596,1695.423 1131.7,1670.784L1493.294,1570.795L1700.128,1257.797ZM1929.82,1887.524C1792.699,1887.524 1681.375,1998.849 1681.375,2135.97C1681.375,2273.091 1792.699,2384.416 1929.82,2384.416C2066.941,2384.416 2178.266,2273.091 2178.266,2135.97C2178.266,1998.849 2066.941,1887.524 1929.82,1887.524Z" style="fill:rgb(175,35,28);"/>
                        </g>
                        <g transform="matrix(0.141258,0.002836,-0.003432,0.085216,13358.333358,10966.019651)">
                            <path d="M1700.128,1257.797C1751.096,1180.668 1837.373,1134.268 1929.82,1134.268C2022.268,1134.268 2108.545,1180.668 2159.513,1257.797L2366.347,1570.795L2727.941,1670.784C2817.045,1695.423 2887.834,1763.139 2916.402,1851.062C2944.97,1938.985 2927.502,2035.377 2869.898,2107.684L2636.135,2401.117L2652.778,2775.912C2656.879,2868.269 2614.353,2956.518 2539.561,3010.858C2464.769,3065.197 2367.698,3078.372 2281.128,3045.931L1929.82,2914.285L1578.512,3045.931C1491.943,3078.372 1394.871,3065.197 1320.08,3010.858C1245.288,2956.518 1202.762,2868.269 1206.863,2775.912L1223.506,2401.117L989.742,2107.684C932.139,2035.377 914.671,1938.985 943.239,1851.062C971.807,1763.139 1042.596,1695.423 1131.7,1670.784L1493.294,1570.795L1700.128,1257.797ZM1929.82,1887.524C1792.699,1887.524 1681.375,1998.849 1681.375,2135.97C1681.375,2273.091 1792.699,2384.416 1929.82,2384.416C2066.941,2384.416 2178.266,2273.091 2178.266,2135.97C2178.266,1998.849 2066.941,1887.524 1929.82,1887.524Z" style="fill:rgb(175,35,28);"/>
                        </g>
                        <g transform="matrix(0.135973,-0.027172,0.032887,0.082028,13647.904747,11074.113616)">
                            <path d="M1700.128,1257.797C1751.096,1180.668 1837.373,1134.268 1929.82,1134.268C2022.268,1134.268 2108.545,1180.668 2159.513,1257.797L2366.347,1570.795L2727.941,1670.784C2817.045,1695.423 2887.834,1763.139 2916.402,1851.062C2944.97,1938.985 2927.502,2035.377 2869.898,2107.684L2636.135,2401.117L2652.778,2775.912C2656.879,2868.269 2614.353,2956.518 2539.561,3010.858C2464.769,3065.197 2367.698,3078.372 2281.128,3045.931L1929.82,2914.285L1578.512,3045.931C1491.943,3078.372 1394.871,3065.197 1320.08,3010.858C1245.288,2956.518 1202.762,2868.269 1206.863,2775.912L1223.506,2401.117L989.742,2107.684C932.139,2035.377 914.671,1938.985 943.239,1851.062C971.807,1763.139 1042.596,1695.423 1131.7,1670.784L1493.294,1570.795L1700.128,1257.797ZM1929.82,1887.524C1792.699,1887.524 1681.375,1998.849 1681.375,2135.97C1681.375,2273.091 1792.699,2384.416 1929.82,2384.416C2066.941,2384.416 2178.266,2273.091 2178.266,2135.97C2178.266,1998.849 2066.941,1887.524 1929.82,1887.524Z" style="fill:rgb(175,35,28);"/>
                        </g>
                    </g>
                    <g transform="matrix(0.461362,0,0,0.298119,5994.726731,8400.015167)">
                        <path d="M15776.542,10199.039C15816.779,10199.039 15852.829,10207.863 15884.692,10225.512C15914.921,10242.367 15930.036,10260.314 15930.036,10279.35C15930.036,10288.869 15926.359,10297.198 15919.006,10304.336C15910.632,10312.467 15900.624,10316.532 15888.981,10316.532C15878.565,10316.532 15867.841,10311.475 15856.812,10301.362C15832.915,10279.35 15806.056,10268.345 15776.235,10268.345C15752.542,10268.345 15733.343,10272.311 15718.637,10280.243C15701.684,10289.365 15693.208,10302.75 15693.208,10320.399C15693.208,10336.064 15700.867,10349.152 15716.186,10359.662C15727.624,10367.594 15754.891,10377.807 15797.988,10390.3C15853.952,10406.362 15892.147,10422.325 15912.572,10438.189C15943.005,10461.985 15958.222,10492.524 15958.222,10529.804C15958.222,10573.43 15940.248,10607.538 15904.3,10632.127C15871.824,10654.139 15829.647,10665.145 15777.767,10665.145C15728.747,10665.145 15685.549,10653.643 15648.171,10630.64C15612.836,10608.827 15595.168,10587.609 15595.168,10566.986C15595.168,10558.459 15598.028,10550.824 15603.747,10544.082C15611.712,10534.365 15621.823,10529.507 15634.078,10529.507C15642.86,10529.507 15650.928,10532.184 15658.281,10537.538C15660.528,10539.323 15664.919,10543.388 15671.455,10549.734C15702.297,10579.082 15737.734,10593.756 15777.767,10593.756C15804.524,10593.756 15826.175,10588.898 15842.719,10579.181C15860.693,10568.87 15869.68,10554.294 15869.68,10535.456C15869.68,10516.221 15860.284,10500.753 15841.493,10489.053C15828.83,10481.32 15800.337,10470.711 15756.015,10457.226C15709.037,10442.949 15674.315,10428.175 15651.847,10412.906C15623.457,10393.473 15609.261,10364.322 15609.261,10325.455C15609.261,10293.926 15620.801,10266.858 15643.882,10244.251C15674.519,10214.11 15718.739,10199.039 15776.542,10199.039Z" style="fill:white;"/>
                        <path d="M15776.542,10196.871C15817.171,10196.871 15853.569,10205.795 15885.742,10223.616L15885.748,10223.619C15916.906,10240.993 15932.203,10259.728 15932.203,10279.35C15932.203,10289.457 15928.323,10298.311 15920.516,10305.892C15911.721,10314.431 15901.209,10318.699 15888.981,10318.699C15878.105,10318.699 15866.863,10313.519 15855.347,10302.959L15855.344,10302.956C15831.879,10281.343 15805.516,10270.512 15776.235,10270.512C15752.97,10270.512 15734.106,10274.362 15719.665,10282.151C15703.505,10290.846 15695.375,10303.575 15695.375,10320.399C15695.375,10335.37 15702.773,10347.831 15717.412,10357.875L15717.421,10357.881C15728.768,10365.75 15755.838,10375.824 15798.589,10388.217C15854.921,10404.385 15893.343,10420.509 15913.902,10436.478L15913.907,10436.482C15944.905,10460.72 15960.389,10491.832 15960.389,10529.804C15960.389,10574.193 15942.1,10608.897 15905.524,10633.916L15905.516,10633.922C15872.725,10656.147 15830.151,10667.312 15777.767,10667.312C15728.316,10667.312 15684.74,10655.691 15647.034,10632.485C15629.125,10621.43 15615.707,10610.507 15606.753,10599.754C15597.537,10588.686 15593.001,10577.743 15593.001,10566.986C15593.001,10557.944 15596.021,10549.845 15602.081,10542.695C15610.484,10532.451 15621.153,10527.339 15634.078,10527.339C15643.322,10527.339 15651.817,10530.15 15659.557,10535.786L15659.629,10535.841C15661.902,10537.646 15666.347,10541.753 15672.956,10548.17C15703.365,10577.104 15738.297,10591.589 15777.767,10591.589C15804.067,10591.589 15825.359,10586.863 15841.621,10577.312L15841.64,10577.301C15858.854,10567.425 15867.512,10553.498 15867.512,10535.456C15867.512,10516.969 15858.413,10502.144 15840.356,10490.898C15827.764,10483.211 15799.432,10472.701 15755.384,10459.3C15708.137,10444.94 15673.226,10430.056 15650.629,10414.699L15650.623,10414.695C15621.642,10394.857 15607.094,10365.13 15607.094,10325.455C15607.094,10293.326 15618.846,10265.739 15642.362,10242.706C15673.357,10212.212 15718.063,10196.871 15776.542,10196.871ZM15776.542,10199.039C15718.739,10199.039 15674.519,10214.11 15643.882,10244.251C15620.801,10266.858 15609.261,10293.926 15609.261,10325.455C15609.261,10364.322 15623.457,10393.473 15651.847,10412.906C15674.315,10428.175 15709.037,10442.949 15756.015,10457.226C15800.337,10470.711 15828.83,10481.32 15841.493,10489.053C15860.284,10500.753 15869.68,10516.221 15869.68,10535.456C15869.68,10554.294 15860.693,10568.87 15842.719,10579.181C15826.175,10588.898 15804.524,10593.756 15777.767,10593.756C15737.734,10593.756 15702.297,10579.082 15671.455,10549.734C15664.919,10543.388 15660.528,10539.323 15658.281,10537.538C15650.928,10532.184 15642.86,10529.507 15634.078,10529.507C15621.823,10529.507 15611.712,10534.365 15603.747,10544.082C15598.028,10550.824 15595.168,10558.459 15595.168,10566.986C15595.168,10587.609 15612.836,10608.827 15648.171,10630.64C15685.549,10653.643 15728.747,10665.145 15777.767,10665.145C15829.647,10665.145 15871.824,10654.139 15904.3,10632.127C15940.248,10607.538 15958.222,10573.43 15958.222,10529.804C15958.222,10492.524 15943.005,10461.985 15912.572,10438.189C15892.147,10422.325 15853.952,10406.362 15797.988,10390.3C15754.891,10377.807 15727.624,10367.594 15716.186,10359.662C15700.867,10349.152 15693.208,10336.064 15693.208,10320.399C15693.208,10302.75 15701.684,10289.365 15718.637,10280.243C15733.343,10272.311 15752.542,10268.345 15776.235,10268.345C15806.056,10268.345 15832.915,10279.35 15856.812,10301.362C15867.841,10311.475 15878.565,10316.532 15888.981,10316.532C15900.624,10316.532 15910.632,10312.467 15919.006,10304.336C15926.359,10297.198 15930.036,10288.869 15930.036,10279.35C15930.036,10260.314 15914.921,10242.367 15884.692,10225.512C15852.829,10207.863 15816.779,10199.039 15776.542,10199.039Z" style="fill:white;"/>
                        <path d="M16254.474,10199.039C16300.839,10199.039 16341.689,10210.838 16377.024,10234.435C16412.767,10258.43 16438.911,10291.843 16455.456,10334.676C16466.894,10364.421 16472.613,10396.844 16472.613,10431.943C16472.613,10495.399 16455.251,10548.345 16420.529,10590.782C16379.883,10640.357 16324.123,10665.145 16253.248,10665.145C16178.697,10665.145 16121.099,10637.68 16080.453,10582.751C16049.816,10541.504 16034.497,10491.235 16034.497,10431.943C16034.497,10387.127 16043.79,10346.872 16062.377,10311.178C16088.725,10260.016 16128.962,10226.107 16183.089,10209.449C16205.148,10202.509 16228.943,10199.039 16254.474,10199.039ZM16252.942,10268.345C16215.973,10268.345 16185.846,10282.722 16162.562,10311.475C16138.256,10341.617 16126.103,10381.376 16126.103,10430.753C16126.103,10473.586 16135.498,10509.28 16154.289,10537.835C16177.778,10573.926 16210.867,10591.972 16253.555,10591.972C16294.405,10591.972 16326.676,10575.017 16350.369,10541.107C16370.59,10512.156 16380.7,10475.371 16380.7,10430.753C16380.7,10379.79 16368.037,10339.436 16342.71,10309.69C16319.221,10282.127 16289.299,10268.345 16252.942,10268.345Z" style="fill:white;"/>
                        <path d="M16254.474,10196.871C16301.296,10196.871 16342.544,10208.802 16378.228,10232.633L16378.232,10232.636C16414.342,10256.876 16440.764,10290.625 16457.478,10333.897C16469.008,10363.88 16474.78,10396.562 16474.78,10431.943C16474.78,10495.952 16457.231,10549.349 16422.206,10592.155C16381.148,10642.232 16324.841,10667.312 16253.248,10667.312C16177.939,10667.312 16119.772,10639.53 16078.713,10584.042C16047.811,10542.44 16032.329,10491.746 16032.329,10431.943C16032.329,10386.756 16041.712,10346.171 16060.452,10310.182C16087.08,10258.479 16127.747,10224.215 16182.445,10207.38C16204.703,10200.377 16228.712,10196.871 16254.474,10196.871ZM16254.474,10199.039C16228.943,10199.039 16205.148,10202.509 16183.089,10209.449C16128.962,10226.107 16088.725,10260.016 16062.377,10311.178C16043.79,10346.872 16034.497,10387.127 16034.497,10431.943C16034.497,10491.235 16049.816,10541.504 16080.453,10582.751C16121.099,10637.68 16178.697,10665.145 16253.248,10665.145C16324.123,10665.145 16379.883,10640.357 16420.529,10590.782C16455.251,10548.345 16472.613,10495.399 16472.613,10431.943C16472.613,10396.844 16466.894,10364.421 16455.456,10334.676C16438.911,10291.843 16412.767,10258.43 16377.024,10234.435C16341.689,10210.838 16300.839,10199.039 16254.474,10199.039ZM16252.942,10268.345C16289.299,10268.345 16319.221,10282.127 16342.71,10309.69C16368.037,10339.436 16380.7,10379.79 16380.7,10430.753C16380.7,10475.371 16370.59,10512.156 16350.369,10541.107C16326.676,10575.017 16294.405,10591.972 16253.555,10591.972C16210.867,10591.972 16177.778,10573.926 16154.289,10537.835C16135.498,10509.28 16126.103,10473.586 16126.103,10430.753C16126.103,10381.376 16138.256,10341.617 16162.562,10311.475C16185.846,10282.722 16215.973,10268.345 16252.942,10268.345ZM16252.942,10270.512C16216.662,10270.512 16187.098,10284.621 16164.247,10312.838C16140.223,10342.631 16128.27,10381.948 16128.27,10430.753C16128.27,10473.105 16137.52,10508.409 16156.1,10536.644L16156.106,10536.653C16179.165,10572.084 16211.647,10589.804 16253.555,10589.804C16293.656,10589.804 16325.333,10573.154 16348.592,10539.866C16368.583,10511.243 16378.533,10474.864 16378.533,10430.753C16378.533,10380.391 16366.088,10340.491 16341.06,10311.096C16318.003,10284.039 16288.63,10270.512 16252.942,10270.512Z" style="fill:white;"/>
                        <path d="M16660.102,10236.22L16660.102,10473.289C16660.102,10552.014 16695.437,10591.377 16766.107,10591.377C16836.778,10591.377 16872.113,10552.014 16872.113,10473.289L16872.113,10236.22C16872.113,10226.702 16875.789,10218.968 16883.142,10213.019C16891.517,10206.277 16902.138,10202.906 16915.005,10202.906C16929.507,10202.906 16940.843,10206.872 16949.013,10214.804C16954.936,10220.554 16957.898,10227.693 16957.898,10236.22L16957.898,10484.294C16957.898,10530.697 16948.094,10566.887 16928.486,10592.864C16920.316,10603.572 16909.388,10614.181 16895.704,10624.691C16859.552,10651.66 16816.251,10665.145 16765.801,10665.145C16708.407,10665.145 16660.919,10648.091 16623.337,10613.983C16602.095,10594.946 16587.899,10571.943 16580.751,10544.974C16576.257,10527.524 16574.01,10507.297 16574.01,10484.294L16574.01,10236.22C16574.01,10223.529 16580.138,10214.209 16592.393,10208.26C16599.95,10204.69 16608.222,10202.906 16617.209,10202.906C16628.034,10202.906 16637.634,10205.583 16646.008,10210.937C16655.404,10216.886 16660.102,10225.314 16660.102,10236.22Z" style="fill:white;"/>
                        <path d="M16662.269,10236.22L16662.269,10473.289C16662.269,10511.993 16670.844,10541.055 16688.216,10560.407C16705.516,10579.679 16731.506,10589.209 16766.107,10589.209C16800.708,10589.209 16826.698,10579.679 16843.999,10560.407C16861.371,10541.055 16869.945,10511.993 16869.945,10473.289L16869.945,10236.22C16869.945,10226.01 16873.892,10217.715 16881.779,10211.334L16881.783,10211.331C16890.518,10204.298 16901.583,10200.738 16915.005,10200.738C16930.162,10200.738 16941.984,10204.958 16950.523,10213.248C16956.877,10219.418 16960.065,10227.072 16960.065,10236.22L16960.065,10484.294C16960.065,10531.264 16950.063,10567.875 16930.216,10594.17L16930.209,10594.179C16921.937,10605.021 16910.88,10615.769 16897.024,10626.41L16897,10626.429C16860.485,10653.668 16816.757,10667.312 16765.801,10667.312C16707.817,10667.312 16659.853,10650.049 16621.885,10615.592C16600.32,10596.265 16585.913,10572.909 16578.655,10545.53L16578.652,10545.515C16574.118,10527.909 16571.843,10507.502 16571.843,10484.294L16571.843,10236.22C16571.843,10222.656 16578.349,10212.668 16591.446,10206.31L16591.467,10206.3C16599.307,10202.597 16607.886,10200.738 16617.209,10200.738C16628.475,10200.738 16638.461,10203.539 16647.168,10209.105C16657.242,10215.484 16662.269,10224.526 16662.269,10236.22ZM16660.102,10236.22C16660.102,10225.314 16655.404,10216.886 16646.008,10210.937C16637.634,10205.583 16628.034,10202.906 16617.209,10202.906C16608.222,10202.906 16599.95,10204.69 16592.393,10208.26C16580.138,10214.209 16574.01,10223.529 16574.01,10236.22L16574.01,10484.294C16574.01,10507.297 16576.257,10527.524 16580.751,10544.974C16587.899,10571.943 16602.095,10594.946 16623.337,10613.983C16660.919,10648.091 16708.407,10665.145 16765.801,10665.145C16816.251,10665.145 16859.552,10651.66 16895.704,10624.691C16909.388,10614.181 16920.316,10603.572 16928.486,10592.864C16948.094,10566.887 16957.898,10530.697 16957.898,10484.294L16957.898,10236.22C16957.898,10227.693 16954.936,10220.554 16949.013,10214.804C16940.843,10206.872 16929.507,10202.906 16915.005,10202.906C16902.138,10202.906 16891.517,10206.277 16883.142,10213.019C16875.789,10218.968 16872.113,10226.702 16872.113,10236.22L16872.113,10473.289C16872.113,10552.014 16836.778,10591.377 16766.107,10591.377C16695.437,10591.377 16660.102,10552.014 16660.102,10473.289L16660.102,10236.22Z" style="fill:white;"/>
                        <path d="M17170.816,10489.648L17170.816,10627.368C17170.816,10634.309 17168.773,10640.456 17164.688,10645.81C17156.927,10655.924 17144.57,10660.98 17127.617,10660.98C17113.115,10660.98 17101.779,10657.014 17093.609,10649.082C17087.686,10643.331 17084.725,10636.093 17084.725,10627.368L17084.725,10278.161C17084.725,10232.353 17108.213,10209.449 17155.191,10209.449L17259.971,10209.449C17308.378,10209.449 17348.922,10218.77 17381.602,10237.41C17423.881,10261.603 17445.021,10297.693 17445.021,10345.682C17445.021,10397.042 17425.515,10434.917 17386.504,10459.308C17354.232,10479.535 17311.238,10489.648 17257.52,10489.648L17170.816,10489.648ZM17170.816,10420.937L17259.358,10420.937C17289.587,10420.937 17313.076,10414.592 17329.824,10401.9C17346.368,10389.209 17354.641,10371.164 17354.641,10347.764C17354.641,10321.787 17343.509,10302.849 17321.246,10290.951C17306.131,10282.821 17286.523,10278.756 17262.422,10278.756L17184.603,10278.756C17175.411,10278.756 17170.816,10283.217 17170.816,10292.141L17170.816,10420.937Z" style="fill:white;"/>
                        <path d="M17172.983,10491.816L17172.983,10627.368C17172.983,10634.804 17170.788,10641.388 17166.412,10647.125L17166.408,10647.13C17158.276,10657.726 17145.379,10663.148 17127.617,10663.148C17112.46,10663.148 17100.639,10658.928 17092.1,10650.637C17085.75,10644.473 17082.557,10636.721 17082.557,10627.368L17082.557,10278.161C17082.557,10254.55 17088.721,10236.881 17100.828,10225.075C17112.917,10213.288 17131.013,10207.282 17155.191,10207.282L17259.971,10207.282C17308.809,10207.282 17349.706,10216.722 17382.677,10235.528C17425.689,10260.14 17447.189,10296.862 17447.189,10345.682C17447.189,10397.886 17427.306,10436.354 17387.653,10461.146C17355.091,10481.555 17311.722,10491.816 17257.52,10491.816L17172.983,10491.816ZM17170.816,10489.648L17257.52,10489.648C17311.238,10489.648 17354.232,10479.535 17386.504,10459.308C17425.515,10434.917 17445.021,10397.042 17445.021,10345.682C17445.021,10297.693 17423.881,10261.603 17381.602,10237.41C17348.922,10218.77 17308.378,10209.449 17259.971,10209.449L17155.191,10209.449C17108.213,10209.449 17084.725,10232.353 17084.725,10278.161L17084.725,10627.368C17084.725,10636.093 17087.686,10643.331 17093.609,10649.082C17101.779,10657.014 17113.115,10660.98 17127.617,10660.98C17144.57,10660.98 17156.927,10655.924 17164.688,10645.81C17168.773,10640.456 17170.816,10634.309 17170.816,10627.368L17170.816,10489.648ZM17170.816,10420.937L17170.816,10292.141C17170.816,10283.217 17175.411,10278.756 17184.603,10278.756L17262.422,10278.756C17286.523,10278.756 17306.131,10282.821 17321.246,10290.951C17343.509,10302.849 17354.641,10321.787 17354.641,10347.764C17354.641,10371.164 17346.368,10389.209 17329.824,10401.9C17313.076,10414.592 17289.587,10420.937 17259.358,10420.937L17170.816,10420.937ZM17172.983,10418.77L17259.358,10418.77C17289.013,10418.77 17312.078,10412.626 17328.51,10400.177C17344.518,10387.894 17352.473,10370.408 17352.473,10347.764C17352.473,10322.665 17341.734,10304.358 17320.224,10292.863L17320.219,10292.86C17305.371,10284.873 17286.099,10280.923 17262.422,10280.923L17184.603,10280.923C17180.694,10280.923 17177.727,10281.76 17175.772,10283.657C17173.839,10285.534 17172.983,10288.387 17172.983,10292.141L17172.983,10418.77Z" style="fill:white;"/>
                        <path d="M15456.387,11046.174L15456.387,11214.829C15456.387,11221.769 15454.344,11227.916 15450.259,11233.271C15442.498,11243.384 15430.243,11248.441 15413.494,11248.441C15399.197,11248.441 15387.963,11244.475 15379.793,11236.543C15373.87,11230.792 15370.908,11223.554 15370.908,11214.829L15370.908,10823.68C15370.908,10815.352 15373.767,10808.312 15379.486,10802.561C15387.656,10794.431 15399.094,10790.366 15413.8,10790.366C15431.162,10790.366 15443.723,10796.018 15451.485,10807.321C15454.753,10811.882 15456.387,10817.335 15456.387,10823.68L15456.387,10973.596L15668.398,10973.596L15668.398,10823.68C15668.398,10816.74 15670.44,10810.692 15674.525,10805.536C15682.287,10795.423 15694.44,10790.366 15710.984,10790.366C15725.281,10790.366 15736.515,10794.332 15744.685,10802.264C15750.608,10808.015 15753.57,10815.154 15753.57,10823.68L15753.57,11214.829C15753.57,11223.356 15750.71,11230.494 15744.991,11236.245C15737.026,11244.375 15725.69,11248.441 15710.984,11248.441C15693.418,11248.441 15680.857,11242.789 15673.3,11231.486C15670.032,11226.925 15668.398,11221.373 15668.398,11214.829L15668.398,11046.174L15456.387,11046.174Z" style="fill:white;"/>
                        <path d="M15458.554,11048.341L15458.554,11214.829C15458.554,11222.265 15456.359,11228.849 15451.982,11234.585L15451.979,11234.59C15443.844,11245.19 15431.048,11250.608 15413.494,11250.608C15398.545,11250.608 15386.825,11246.391 15378.283,11238.098C15371.934,11231.933 15368.741,11224.182 15368.741,11214.829L15368.741,10823.68C15368.741,10814.748 15371.816,10807.201 15377.95,10801.033L15377.958,10801.025C15386.498,10792.526 15398.427,10788.198 15413.8,10788.198C15432,10788.198 15445.118,10794.233 15453.259,10806.076C15456.773,10810.988 15458.554,10816.851 15458.554,10823.68L15458.554,10971.428L15666.23,10971.428L15666.23,10823.68C15666.23,10816.23 15668.434,10809.74 15672.815,10804.204C15680.953,10793.609 15693.645,10788.198 15710.984,10788.198C15725.932,10788.198 15737.653,10792.416 15746.195,10800.709C15752.549,10806.878 15755.737,10814.533 15755.737,10823.68L15755.737,11214.829C15755.737,11223.963 15752.66,11231.604 15746.536,11237.766C15738.201,11246.271 15726.37,11250.608 15710.984,11250.608C15692.567,11250.608 15679.449,11244.561 15671.531,11232.739C15668.018,11227.832 15666.23,11221.868 15666.23,11214.829L15666.23,11048.341L15458.554,11048.341ZM15456.387,11046.174L15668.398,11046.174L15668.398,11214.829C15668.398,11221.373 15670.032,11226.925 15673.3,11231.486C15680.857,11242.789 15693.418,11248.441 15710.984,11248.441C15725.69,11248.441 15737.026,11244.375 15744.991,11236.245C15750.71,11230.494 15753.57,11223.356 15753.57,11214.829L15753.57,10823.68C15753.57,10815.154 15750.608,10808.015 15744.685,10802.264C15736.515,10794.332 15725.281,10790.366 15710.984,10790.366C15694.44,10790.366 15682.287,10795.423 15674.525,10805.536C15670.44,10810.692 15668.398,10816.74 15668.398,10823.68L15668.398,10973.596L15456.387,10973.596L15456.387,10823.68C15456.387,10817.335 15454.753,10811.882 15451.485,10807.321C15443.723,10796.018 15431.162,10790.366 15413.8,10790.366C15399.094,10790.366 15387.656,10794.431 15379.486,10802.561C15373.767,10808.312 15370.908,10815.352 15370.908,10823.68L15370.908,11214.829C15370.908,11223.554 15373.87,11230.792 15379.793,11236.543C15387.963,11244.475 15399.197,11248.441 15413.494,11248.441C15430.243,11248.441 15442.498,11243.384 15450.259,11233.271C15454.344,11227.916 15456.387,11221.769 15456.387,11214.829L15456.387,11046.174Z" style="fill:white;"/>
                        <path d="M16075.251,10786.499C16121.616,10786.499 16162.466,10798.298 16197.801,10821.896C16233.544,10845.89 16259.688,10879.304 16276.233,10922.137C16287.671,10951.882 16293.39,10984.304 16293.39,11019.403C16293.39,11082.86 16276.028,11135.806 16241.306,11178.242C16200.66,11227.817 16144.9,11252.605 16074.025,11252.605C15999.474,11252.605 15941.876,11225.14 15901.23,11170.211C15870.593,11128.964 15855.274,11078.695 15855.274,11019.403C15855.274,10974.587 15864.567,10934.332 15883.154,10898.638C15909.502,10847.477 15949.739,10813.567 16003.866,10796.91C16025.925,10789.969 16049.72,10786.499 16075.251,10786.499ZM16073.719,10855.805C16036.75,10855.805 16006.623,10870.182 15983.339,10898.936C15959.033,10929.077 15946.88,10968.837 15946.88,11018.213C15946.88,11061.046 15956.275,11096.741 15975.066,11125.296C15998.555,11161.387 16031.644,11179.432 16074.332,11179.432C16115.182,11179.432 16147.453,11162.477 16171.146,11128.568C16191.367,11099.616 16201.477,11062.831 16201.477,11018.213C16201.477,10967.25 16188.814,10926.896 16163.487,10897.151C16139.998,10869.587 16110.076,10855.805 16073.719,10855.805Z" style="fill:white;"/>
                        <path d="M16075.251,10784.332C16122.073,10784.332 16163.321,10796.263 16199.005,10820.093L16199.009,10820.096C16235.119,10844.336 16261.541,10878.086 16278.255,10921.357C16289.785,10951.341 16295.557,10984.023 16295.557,11019.403C16295.557,11083.413 16278.008,11136.809 16242.983,11179.616C16201.925,11229.693 16145.618,11254.772 16074.025,11254.772C15998.716,11254.772 15940.549,11226.99 15899.49,11171.503C15868.588,11129.9 15853.106,11079.207 15853.106,11019.403C15853.106,10974.217 15862.489,10933.632 15881.229,10897.642C15907.857,10845.94 15948.524,10811.675 16003.222,10794.84C16025.48,10787.838 16049.489,10784.332 16075.251,10784.332ZM16075.251,10786.499C16049.72,10786.499 16025.925,10789.969 16003.866,10796.91C15949.739,10813.567 15909.502,10847.477 15883.154,10898.638C15864.567,10934.332 15855.274,10974.587 15855.274,11019.403C15855.274,11078.695 15870.593,11128.964 15901.23,11170.211C15941.876,11225.14 15999.474,11252.605 16074.025,11252.605C16144.9,11252.605 16200.66,11227.817 16241.306,11178.242C16276.028,11135.806 16293.39,11082.86 16293.39,11019.403C16293.39,10984.304 16287.671,10951.882 16276.233,10922.137C16259.688,10879.304 16233.544,10845.89 16197.801,10821.896C16162.466,10798.298 16121.616,10786.499 16075.251,10786.499ZM16073.719,10855.805C16110.076,10855.805 16139.998,10869.587 16163.487,10897.151C16188.814,10926.896 16201.477,10967.25 16201.477,11018.213C16201.477,11062.831 16191.367,11099.616 16171.146,11128.568C16147.453,11162.477 16115.182,11179.432 16074.332,11179.432C16031.644,11179.432 15998.555,11161.387 15975.066,11125.296C15956.275,11096.741 15946.88,11061.046 15946.88,11018.213C15946.88,10968.837 15959.033,10929.077 15983.339,10898.936C16006.623,10870.182 16036.75,10855.805 16073.719,10855.805ZM16073.719,10857.973C16037.439,10857.973 16007.875,10872.081 15985.024,10900.298C15961,10930.091 15949.047,10969.408 15949.047,11018.213C15949.047,11060.566 15958.297,11095.87 15976.877,11124.104L15976.883,11124.114C15999.942,11159.545 16032.424,11177.264 16074.332,11177.264C16114.433,11177.264 16146.11,11160.615 16169.369,11127.327C16189.36,11098.704 16199.31,11062.324 16199.31,11018.213C16199.31,10967.851 16186.865,10927.951 16161.837,10898.557C16138.78,10871.5 16109.407,10857.973 16073.719,10857.973Z" style="fill:white;"/>
                        <path d="M16480.879,10823.68L16480.879,11060.749C16480.879,11139.474 16516.214,11178.837 16586.884,11178.837C16657.555,11178.837 16692.89,11139.474 16692.89,11060.749L16692.89,10823.68C16692.89,10814.162 16696.566,10806.428 16703.919,10800.479C16712.294,10793.737 16722.915,10790.366 16735.782,10790.366C16750.284,10790.366 16761.62,10794.332 16769.79,10802.264C16775.713,10808.015 16778.675,10815.154 16778.675,10823.68L16778.675,11071.755C16778.675,11118.157 16768.871,11154.347 16749.263,11180.324C16741.093,11191.033 16730.165,11201.642 16716.481,11212.152C16680.328,11239.12 16637.028,11252.605 16586.578,11252.605C16529.184,11252.605 16481.696,11235.551 16444.114,11201.443C16422.872,11182.406 16408.676,11159.404 16401.528,11132.435C16397.034,11114.984 16394.787,11094.758 16394.787,11071.755L16394.787,10823.68C16394.787,10810.989 16400.915,10801.669 16413.17,10795.72C16420.727,10792.151 16428.999,10790.366 16437.986,10790.366C16448.811,10790.366 16458.411,10793.043 16466.785,10798.397C16476.181,10804.346 16480.879,10812.774 16480.879,10823.68Z" style="fill:white;"/>
                        <path d="M16483.046,10823.68L16483.046,11060.749C16483.046,11099.453 16491.621,11128.515 16508.993,11147.867C16526.293,11167.139 16552.283,11176.67 16586.884,11176.67C16621.485,11176.67 16647.475,11167.139 16664.776,11147.867C16682.148,11128.515 16690.722,11099.453 16690.722,11060.749L16690.722,10823.68C16690.722,10813.47 16694.669,10805.176 16702.556,10798.794L16702.56,10798.791C16711.295,10791.758 16722.36,10788.198 16735.782,10788.198C16750.939,10788.198 16762.761,10792.419 16771.3,10800.709C16777.654,10806.878 16780.842,10814.533 16780.842,10823.68L16780.842,11071.755C16780.842,11118.724 16770.84,11155.335 16750.993,11181.63L16750.986,11181.639C16742.714,11192.481 16731.657,11203.229 16717.801,11213.871L16717.777,11213.889C16681.262,11241.128 16637.534,11254.772 16586.578,11254.772C16528.594,11254.772 16480.63,11237.509 16442.662,11203.053C16421.097,11183.725 16406.69,11160.37 16399.432,11132.99L16399.429,11132.975C16394.895,11115.369 16392.62,11094.963 16392.62,11071.755L16392.62,10823.68C16392.62,10810.117 16399.126,10800.128 16412.223,10793.77L16412.244,10793.76C16420.084,10790.057 16428.663,10788.198 16437.986,10788.198C16449.252,10788.198 16459.238,10790.999 16467.945,10796.566C16478.019,10802.945 16483.046,10811.986 16483.046,10823.68ZM16480.879,10823.68C16480.879,10812.774 16476.181,10804.346 16466.785,10798.397C16458.411,10793.043 16448.811,10790.366 16437.986,10790.366C16428.999,10790.366 16420.727,10792.151 16413.17,10795.72C16400.915,10801.669 16394.787,10810.989 16394.787,10823.68L16394.787,11071.755C16394.787,11094.758 16397.034,11114.984 16401.528,11132.435C16408.676,11159.404 16422.872,11182.406 16444.114,11201.443C16481.696,11235.551 16529.184,11252.605 16586.578,11252.605C16637.028,11252.605 16680.328,11239.12 16716.481,11212.152C16730.165,11201.642 16741.093,11191.033 16749.263,11180.324C16768.871,11154.347 16778.675,11118.157 16778.675,11071.755L16778.675,10823.68C16778.675,10815.154 16775.713,10808.015 16769.79,10802.264C16761.62,10794.332 16750.284,10790.366 16735.782,10790.366C16722.915,10790.366 16712.294,10793.737 16703.919,10800.479C16696.566,10806.428 16692.89,10814.162 16692.89,10823.68L16692.89,11060.749C16692.89,11139.474 16657.555,11178.837 16586.884,11178.837C16516.214,11178.837 16480.879,11139.474 16480.879,11060.749L16480.879,10823.68Z" style="fill:white;"/>
                        <path d="M17062.978,10786.499C17103.215,10786.499 17139.265,10795.323 17171.128,10812.972C17201.357,10829.828 17216.472,10847.774 17216.472,10866.811C17216.472,10876.329 17212.795,10884.658 17205.442,10891.797C17197.068,10899.927 17187.06,10903.992 17175.418,10903.992C17165.001,10903.992 17154.278,10898.936 17143.248,10888.822C17119.351,10866.811 17092.492,10855.805 17062.672,10855.805C17038.979,10855.805 17019.779,10859.771 17005.073,10867.703C16988.121,10876.825 16979.644,10890.21 16979.644,10907.859C16979.644,10923.525 16987.304,10936.613 17002.622,10947.123C17014.06,10955.055 17041.328,10965.267 17084.424,10977.76C17140.389,10993.822 17178.583,11009.786 17199.008,11025.65C17229.442,11049.446 17244.658,11079.984 17244.658,11117.265C17244.658,11160.891 17226.684,11194.999 17190.736,11219.588C17158.261,11241.599 17116.083,11252.605 17064.204,11252.605C17015.184,11252.605 16971.985,11241.103 16934.607,11218.101C16899.272,11196.288 16881.604,11175.069 16881.604,11154.446C16881.604,11145.919 16884.464,11138.285 16890.183,11131.542C16898.149,11121.826 16908.259,11116.967 16920.514,11116.967C16929.297,11116.967 16937.365,11119.644 16944.718,11124.998C16946.964,11126.783 16951.356,11130.848 16957.892,11137.194C16988.733,11166.542 17024.171,11181.217 17064.204,11181.217C17090.96,11181.217 17112.611,11176.358 17129.155,11166.642C17147.129,11156.33 17156.116,11141.755 17156.116,11122.916C17156.116,11103.681 17146.72,11088.214 17127.93,11076.514C17115.266,11068.78 17086.773,11058.171 17042.451,11044.687C16995.474,11030.409 16960.751,11015.636 16938.284,11000.366C16909.893,10980.933 16895.698,10951.783 16895.698,10912.916C16895.698,10881.386 16907.238,10854.318 16930.318,10831.712C16960.955,10801.57 17005.175,10786.499 17062.978,10786.499Z" style="fill:white;"/>
                        <path d="M17062.978,10784.332C17103.607,10784.332 17140.005,10793.255 17172.179,10811.076L17172.184,10811.079C17203.343,10828.453 17218.639,10847.188 17218.639,10866.811C17218.639,10876.918 17214.76,10885.772 17206.952,10893.352C17198.157,10901.891 17187.645,10906.16 17175.418,10906.16C17164.542,10906.16 17153.299,10900.979 17141.783,10890.42L17141.78,10890.417C17118.315,10868.804 17091.952,10857.973 17062.672,10857.973C17039.406,10857.973 17020.542,10861.822 17006.101,10869.611C16989.941,10878.307 16981.812,10891.036 16981.812,10907.859C16981.812,10922.83 16989.209,10935.292 17003.849,10945.335L17003.857,10945.342C17015.204,10953.21 17042.274,10963.285 17085.026,10975.678C17141.357,10991.846 17179.779,11007.97 17200.338,11023.938L17200.344,11023.942C17231.342,11048.18 17246.826,11079.292 17246.826,11117.265C17246.826,11161.654 17228.537,11196.358 17191.96,11221.377L17191.952,11221.382C17159.161,11243.607 17116.587,11254.772 17064.204,11254.772C17014.752,11254.772 16971.177,11243.151 16933.47,11219.946C16915.562,11208.891 16902.144,11197.968 16893.189,11187.214C16883.974,11176.146 16879.437,11165.204 16879.437,11154.446C16879.437,11145.405 16882.457,11137.305 16888.517,11130.155C16896.92,11119.912 16907.589,11114.8 16920.514,11114.8C16929.759,11114.8 16938.254,11117.61 16945.993,11123.246L16946.066,11123.301C16948.338,11125.106 16952.783,11129.213 16959.392,11135.63C16989.801,11164.564 17024.733,11179.049 17064.204,11179.049C17090.504,11179.049 17111.796,11174.323 17128.057,11164.773L17128.076,11164.761C17145.29,11154.886 17153.948,11140.958 17153.948,11122.916C17153.948,11104.429 17144.85,11089.605 17126.792,11078.359C17114.2,11070.672 17085.868,11060.161 17041.821,11046.76C16994.573,11032.401 16959.662,11017.516 16937.065,11002.159L16937.059,11002.155C16908.079,10982.318 16893.53,10952.59 16893.53,10912.916C16893.53,10880.786 16905.282,10853.2 16928.798,10830.167C16959.794,10799.672 17004.499,10784.332 17062.978,10784.332ZM17062.978,10786.499C17005.175,10786.499 16960.955,10801.57 16930.318,10831.712C16907.238,10854.318 16895.698,10881.386 16895.698,10912.916C16895.698,10951.783 16909.893,10980.933 16938.284,11000.366C16960.751,11015.636 16995.474,11030.409 17042.451,11044.687C17086.773,11058.171 17115.266,11068.78 17127.93,11076.514C17146.72,11088.214 17156.116,11103.681 17156.116,11122.916C17156.116,11141.755 17147.129,11156.33 17129.155,11166.642C17112.611,11176.358 17090.96,11181.217 17064.204,11181.217C17024.171,11181.217 16988.733,11166.542 16957.892,11137.194C16951.356,11130.848 16946.964,11126.783 16944.718,11124.998C16937.365,11119.644 16929.297,11116.967 16920.514,11116.967C16908.259,11116.967 16898.149,11121.826 16890.183,11131.542C16884.464,11138.285 16881.604,11145.919 16881.604,11154.446C16881.604,11175.069 16899.272,11196.288 16934.607,11218.101C16971.985,11241.103 17015.184,11252.605 17064.204,11252.605C17116.083,11252.605 17158.261,11241.599 17190.736,11219.588C17226.684,11194.999 17244.658,11160.891 17244.658,11117.265C17244.658,11079.984 17229.442,11049.446 17199.008,11025.65C17178.583,11009.786 17140.389,10993.822 17084.424,10977.76C17041.328,10965.267 17014.06,10955.055 17002.622,10947.123C16987.304,10936.613 16979.644,10923.525 16979.644,10907.859C16979.644,10890.21 16988.121,10876.825 17005.073,10867.703C17019.779,10859.771 17038.979,10855.805 17062.672,10855.805C17092.492,10855.805 17119.351,10866.811 17143.248,10888.822C17154.278,10898.936 17165.001,10903.992 17175.418,10903.992C17187.06,10903.992 17197.068,10899.927 17205.442,10891.797C17212.795,10884.658 17216.472,10876.329 17216.472,10866.811C17216.472,10847.774 17201.357,10829.828 17171.128,10812.972C17139.265,10795.323 17103.215,10786.499 17062.978,10786.499Z" style="fill:white;"/>
                        <path d="M17432.147,11047.959L17432.147,11158.61C17432.147,11165.948 17435.926,11169.616 17443.483,11169.616L17662.541,11169.616C17670.915,11169.616 17677.86,11172.491 17683.374,11178.242C17689.91,11185.183 17693.178,11194.305 17693.178,11205.608C17693.178,11221.075 17687.766,11231.882 17676.941,11238.03C17672.651,11240.409 17667.851,11241.599 17662.541,11241.599L17407.025,11241.599C17366.379,11241.599 17346.056,11221.868 17346.056,11182.406L17346.056,10856.103C17346.056,10816.641 17366.379,10796.91 17407.025,10796.91L17653.043,10796.91C17660.396,10796.91 17666.83,10799.29 17672.345,10804.049C17679.902,10810.989 17683.681,10820.409 17683.681,10832.307C17683.681,10846.981 17678.268,10857.392 17667.443,10863.539C17663.358,10865.919 17658.558,10867.108 17653.043,10867.108L17443.483,10867.108C17435.926,10867.108 17432.147,10870.975 17432.147,10878.709L17432.147,10978.652L17626.082,10978.652C17633.027,10978.652 17638.95,10980.834 17643.852,10985.196C17651.205,10991.74 17654.882,11001.259 17654.882,11013.752C17654.882,11027.831 17649.98,11037.944 17640.176,11044.092C17636.295,11046.67 17631.597,11047.959 17626.082,11047.959L17432.147,11047.959Z" style="fill:white;"/>
                        <path d="M17434.315,11050.126L17434.315,11158.61C17434.315,11161.571 17434.966,11163.829 17436.491,11165.31C17438.037,11166.81 17440.391,11167.449 17443.483,11167.449L17662.541,11167.449C17671.547,11167.449 17679.008,11170.557 17684.939,11176.742L17684.952,11176.756C17691.848,11184.078 17695.346,11193.683 17695.346,11205.608C17695.346,11222.004 17689.486,11233.398 17678.011,11239.915L17677.992,11239.925C17673.389,11242.479 17668.24,11243.767 17662.541,11243.767L17407.025,11243.767C17386.014,11243.767 17370.293,11238.555 17359.788,11228.356C17349.262,11218.137 17343.888,11202.846 17343.888,11182.406L17343.888,10856.103C17343.888,10835.664 17349.262,10820.372 17359.788,10810.153C17370.293,10799.954 17386.014,10794.742 17407.025,10794.742L17653.043,10794.742C17660.936,10794.742 17667.841,10797.299 17673.761,10802.408L17673.811,10802.452C17681.801,10809.79 17685.848,10819.727 17685.848,10832.307C17685.848,10847.884 17680.012,10858.89 17668.523,10865.418C17664.129,10867.975 17658.973,10869.276 17653.043,10869.276L17443.483,10869.276C17440.41,10869.276 17438.068,10869.951 17436.531,10871.523C17434.979,10873.112 17434.315,10875.531 17434.315,10878.709L17434.315,10976.485L17626.082,10976.485C17633.592,10976.485 17639.992,10978.859 17645.293,10983.577C17653.072,10990.5 17657.049,11000.535 17657.049,11013.752C17657.049,11028.695 17651.748,11039.382 17641.373,11045.899C17637.16,11048.696 17632.069,11050.126 17626.082,11050.126L17434.315,11050.126ZM17432.147,11047.959L17626.082,11047.959C17631.597,11047.959 17636.295,11046.67 17640.176,11044.092C17649.98,11037.944 17654.882,11027.831 17654.882,11013.752C17654.882,11001.259 17651.205,10991.74 17643.852,10985.196C17638.95,10980.834 17633.027,10978.652 17626.082,10978.652L17432.147,10978.652L17432.147,10878.709C17432.147,10870.975 17435.926,10867.108 17443.483,10867.108L17653.043,10867.108C17658.558,10867.108 17663.358,10865.919 17667.443,10863.539C17678.268,10857.392 17683.681,10846.981 17683.681,10832.307C17683.681,10820.409 17679.902,10810.989 17672.345,10804.049C17666.83,10799.29 17660.396,10796.91 17653.043,10796.91L17407.025,10796.91C17366.379,10796.91 17346.056,10816.641 17346.056,10856.103L17346.056,11182.406C17346.056,11221.868 17366.379,11241.599 17407.025,11241.599L17662.541,11241.599C17667.851,11241.599 17672.651,11240.409 17676.941,11238.03C17687.766,11231.882 17693.178,11221.075 17693.178,11205.608C17693.178,11194.305 17689.91,11185.183 17683.374,11178.242C17677.86,11172.491 17670.915,11169.616 17662.541,11169.616L17443.483,11169.616C17435.926,11169.616 17432.147,11165.948 17432.147,11158.61L17432.147,11047.959Z" style="fill:white;"/>
                    </g>
                </g>
            </g>
        </g>
    </g>
</svg>
